<svg xmlns="http://www.w3.org/2000/svg" width="10.442" height="10.442" viewBox="0 0 10.442 10.442">
  <g id="Group_39150" data-name="Group 39150" transform="translate(-0.958 0.202)">
    <path id="Icon_ionic-ios-close-circle" data-name="Icon ionic-ios-close-circle" d="M8.6,3.375A5.221,5.221,0,1,0,13.817,8.6,5.22,5.22,0,0,0,8.6,3.375Zm1.323,7.111L8.6,9.163,7.273,10.486a.4.4,0,1,1-.567-.567L8.029,8.6,6.706,7.273a.4.4,0,0,1,.567-.567L8.6,8.029,9.919,6.706a.4.4,0,0,1,.567.567L9.163,8.6l1.323,1.323a.4.4,0,0,1,0,.567A.4.4,0,0,1,9.919,10.486Z" transform="translate(-2.417 -3.577)" fill="#991b33"/>
  </g>
</svg>
