<svg id="Group_39560" data-name="Group 39560" xmlns="http://www.w3.org/2000/svg" width="25" height="25" viewBox="0 0 25 25">
  <circle id="Ellipse_2288" data-name="Ellipse 2288" cx="12.5" cy="12.5" r="12.5" fill="#bcbbee"/>
  <path id="Path_6549" d="M15.53,14.348a.443.443,0,0,1-.323.415H4.369A.4.4,0,0,1,4,14.394v-.046c.046-.231.046-.461.092-.692a1.752,1.752,0,0,1,1.245-1.337L7,11.765c.092-.046.553-.231.646-.277a.045.045,0,0,0,.046-.046,1.708,1.708,0,0,0,.784-1.891c-.046-.092-.046-.138-.092-.231-.231-.369-.461-.692-.738-1.107-.092-.092-.138-.231-.231-.323-.461-.092-.461-.092-.507-.646-.046-.184-.046-.369-.092-.507-.092-.323,0-.553.277-.646V5.216a1.891,1.891,0,0,1,.646-1.43A2.44,2.44,0,0,1,8.7,3.279c.323-.046.646-.092.784-.092a3.51,3.51,0,0,1,1.66.277h0a4.211,4.211,0,0,1,.6.369,1.782,1.782,0,0,1,.507,1.245v.969a.468.468,0,0,1,.323.6h0a.169.169,0,0,1-.046.138c-.046.184-.046.369-.092.553-.046.323-.138.6-.461.553-.323.507-.6.969-.922,1.384a1.7,1.7,0,0,0,.415,1.983h.046a1.008,1.008,0,0,0,.231.138c.046,0,.646.323.738.369l.415.138,1.245.415a1.752,1.752,0,0,1,1.245,1.337Z" transform="translate(2.735 3.532)" fill="#7978de"/>
</svg>
