<svg xmlns="http://www.w3.org/2000/svg" width="27" height="27" viewBox="0 0 27 27">
  <g id="Schedule" transform="translate(-138 -593.164)">
    <g id="Group_39252" data-name="Group 39252" transform="translate(139 599.162)">
      <path id="Rectangle_22216" data-name="Rectangle 22216" d="M0,0H25a0,0,0,0,1,0,0V14a4,4,0,0,1-4,4H4a4,4,0,0,1-4-4V0A0,0,0,0,1,0,0Z" transform="translate(0 2)" fill="none" stroke="#cbcbcb" stroke-width="2"/>
      <path id="Path_32906" data-name="Path 32906" d="M-10.128-4.851a1.864,1.864,0,0,1,1,.649,1.858,1.858,0,0,1,.348,1.156,1.9,1.9,0,0,1-.66,1.531,2.677,2.677,0,0,1-1.789.559A4,4,0,0,1-12.609-1.2a3.174,3.174,0,0,1-1.119-.676l.327-.665a3.29,3.29,0,0,0,2.154.855,1.8,1.8,0,0,0,1.2-.354,1.3,1.3,0,0,0,.412-1.04q0-1.362-1.71-1.362H-12.2v-.728h.686a1.948,1.948,0,0,0,1.267-.364A1.281,1.281,0,0,0-9.8-6.582a1.177,1.177,0,0,0-.359-.924,1.483,1.483,0,0,0-1.024-.322,3.3,3.3,0,0,0-2.111.855l-.327-.665a3.191,3.191,0,0,1,1.108-.676,3.884,3.884,0,0,1,1.362-.243,2.388,2.388,0,0,1,1.61.512,1.723,1.723,0,0,1,.6,1.378,2.02,2.02,0,0,1-.311,1.124A1.739,1.739,0,0,1-10.128-4.851Zm7.653,3.093v.728H-6.613v-.728h1.636V-7.395l-1.309.823-.4-.665,1.953-1.235h.623v6.714Z" transform="translate(20.601 15.394)" fill="#cbcbcb"/>
    </g>
    <g id="Group_39253" data-name="Group 39253" transform="translate(139 594.164)">
      <path id="Rectangle_22217" data-name="Rectangle 22217" d="M4,0H21a4,4,0,0,1,4,4V7.235a0,0,0,0,1,0,0H0a0,0,0,0,1,0,0V4A4,4,0,0,1,4,0Z" transform="translate(0 0)" fill="#cbcbcb" stroke="#cbcbcb" stroke-width="2"/>
    </g>
  </g>
</svg>
