<svg id="Group_38142" data-name="Group 38142" xmlns="http://www.w3.org/2000/svg" width="44" height="40" viewBox="0 0 44 40">
  <rect id="Rectangle_21688" data-name="Rectangle 21688" width="44" height="40" rx="5" fill="none"/>
  <path id="Filter" d="M695.9,1337.184h2.219a3.284,3.284,0,0,0,6.32,0h14.772a.9.9,0,1,0,0-1.793H704.436a3.284,3.284,0,0,0-6.32,0H695.9a.9.9,0,1,0,0,1.793Zm5.38-2.391a1.494,1.494,0,1,1-1.494,1.494,1.494,1.494,0,0,1,1.494-1.494Zm17.932,8.966h-2.619a3.283,3.283,0,0,0-6.118,0H695.9a.9.9,0,1,0,0,1.793H710.3a3.285,3.285,0,0,0,6.46,0h2.451a.9.9,0,1,0,0-1.793Zm-5.678,2.69a1.494,1.494,0,1,1,1.494-1.494A1.494,1.494,0,0,1,713.53,1346.449Zm5.678,5.678H704.436a3.284,3.284,0,0,0-6.32,0H695.9a.9.9,0,1,0,0,1.793h2.219a3.284,3.284,0,0,0,6.32,0h14.772a.9.9,0,1,0,0-1.793Zm-17.932,2.391a1.494,1.494,0,1,1,1.494-1.494A1.494,1.494,0,0,1,701.276,1354.518Z" transform="translate(-686.104 -1325)" fill-rule="evenodd"/>
</svg>
